<svg xmlns="http://www.w3.org/2000/svg" viewBox="0 0 512 512" width="512" height="512">
  <defs>
    <linearGradient id="helmetGrad" x1="0" y1="0" x2="1" y2="1">
      <stop offset="0%" stop-color="#0D1B2A"/>
      <stop offset="100%" stop-color="#7B2FBE"/>
    </linearGradient>
    <linearGradient id="visorGrad" x1="0" y1="0" x2="1" y2="1">
      <stop offset="0%" stop-color="#00D4FF"/>
      <stop offset="60%" stop-color="#0D1B2A"/>
    </linearGradient>
    <linearGradient id="wingGrad" x1="0" y1="0" x2="0" y2="1">
      <stop offset="0%" stop-color="#00D4FF"/>
      <stop offset="100%" stop-color="#7B2FBE"/>
    </linearGradient>
    <!-- Visor reflection shine -->
    <linearGradient id="visorShine" x1="0.2" y1="0" x2="0.8" y2="1">
      <stop offset="0%" stop-color="#FFFFFF" stop-opacity="0.35"/>
      <stop offset="50%" stop-color="#FFFFFF" stop-opacity="0"/>
    </linearGradient>
  </defs>

  <!-- Helmet outer circle -->
  <circle cx="256" cy="256" r="200" fill="url(#helmetGrad)" stroke="#FFFFFF" stroke-width="8"/>

  <!-- Helmet inner ring (edge detail) -->
  <circle cx="256" cy="256" r="170" fill="none" stroke="#FFFFFF" stroke-opacity="0.15" stroke-width="3"/>

  <!-- Visor (rounded rectangle, clipped to helmet) -->
  <rect x="136" y="176" rx="60" ry="60" width="240" height="160" fill="url(#visorGrad)" stroke="#FFFFFF" stroke-width="4"/>

  <!-- Visor reflection highlight -->
  <ellipse cx="210" cy="230" rx="50" ry="30" fill="url(#visorShine)" transform="rotate(-15 210 230)"/>

  <!-- Small star dots inside visor -->
  <circle cx="310" cy="210" r="3" fill="#FFFFFF" opacity="0.6"/>
  <circle cx="330" cy="240" r="2" fill="#FFFFFF" opacity="0.4"/>
  <circle cx="290" cy="290" r="2.5" fill="#FFFFFF" opacity="0.5"/>

  <!-- Flutter wing element (right side of helmet) -->
  <!-- Three layered parallelogram shapes like Flutter's logo -->
  <g transform="translate(390, 180) rotate(15)">
    <!-- Top wing -->
    <path d="M0,0 L40,-20 L40,20 L0,40 Z" fill="url(#wingGrad)" opacity="0.9"/>
    <!-- Middle wing -->
    <path d="M5,45 L45,25 L45,65 L5,85 Z" fill="#00D4FF" opacity="0.7"/>
    <!-- Bottom wing -->
    <path d="M10,90 L50,70 L50,110 L10,130 Z" fill="#7B2FBE" opacity="0.6"/>
  </g>

  <!-- Antenna / comms nub on top -->
  <line x1="256" y1="56" x2="256" y2="30" stroke="#FFFFFF" stroke-width="4" stroke-linecap="round"/>
  <circle cx="256" cy="24" r="8" fill="#00D4FF"/>
  <circle cx="256" cy="24" r="4" fill="#FFFFFF"/>
</svg>
